<svg width="26" height="12" viewBox="0 0 26 12" fill="none" xmlns="http://www.w3.org/2000/svg">
<path d="M10.0237 11.8367L5.71059 11.8361C2.94375 11.8355 0.70511 9.23049 0.70516 6.01159C0.70399 4.45567 1.2256 2.9936 2.1708 1.89373C3.116 0.793857 4.37246 0.186898 5.70958 0.18687L11.5235 0.187442C14.3375 0.187382 16.5278 2.86535 16.5283 6.01125C16.5283 6.64113 16.4309 7.25084 16.2666 7.82997L14.3637 7.82932C14.6224 7.278 14.7753 6.65507 14.7748 6.01059C14.7748 3.99722 13.329 2.22859 11.5258 2.22863L11.524 2.22932L5.70955 2.22806C3.91776 2.2274 2.45874 3.92517 2.4593 6.01016C2.45927 8.11948 3.93497 9.79633 5.71063 9.79351L8.60771 9.79415C9.0313 10.6819 9.47759 11.2722 10.0237 11.8367ZM20.2279 0.186562L15.956 0.188043C16.4919 0.742127 16.9448 1.33862 17.372 2.2292L20.229 2.23192C22.0214 2.2291 23.4792 3.9282 23.4798 6.01319C23.4791 8.1232 22.0022 9.79873 20.2283 9.79668L14.4557 9.79681L14.4527 9.79611C12.735 9.79545 11.2037 8.17352 11.2043 6.01345C11.2049 5.35507 11.3579 4.74327 11.6148 4.20655L11.524 4.19542L9.7125 4.19407C9.5476 4.77529 9.4496 5.38292 9.44959 6.01279C9.44954 9.13436 11.6183 11.8374 14.455 11.8373L20.2283 11.8379C22.9945 11.8364 25.2339 9.23344 25.2327 6.01315C25.2351 2.78869 22.9899 0.187198 20.2279 0.186562Z" fill="#0F1010"/>
</svg>
